<svg width="650" height="250" viewBox="0 0 650 250" fill="none" xmlns="http://www.w3.org/2000/svg">
<path d="M52.0312 66.7812V34.5C52.0312 34.2708 52.0208 34.0938 52 33.9688C51.9792 33.8438 51.9062 33.7188 51.7812 33.5938C51.6771 33.4688 51.5104 33.4062 51.2812 33.4062C50.3021 33.4062 48.875 33.4062 47 33.4062C45.1458 33.3854 43.8125 33.375 43 33.375C42.8125 33.7917 42.5 34.8333 42.0625 36.5C41.6458 38.1458 41.2188 39.5938 40.7812 40.8438C40.3438 42.0938 39.9479 42.7188 39.5938 42.7188C38.8021 42.7188 38.0938 42.6146 37.4688 42.4062C36.8646 42.1979 36.3958 41.9479 36.0625 41.6562C35.75 41.3438 35.5104 41.0625 35.3438 40.8125C35.1979 40.5417 35.125 40.3333 35.125 40.1875C35.125 39.4792 35.5104 37.3333 36.2812 33.75C37.0521 30.1667 37.5833 28.2292 37.875 27.9375C37.9375 27.9375 38 27.9479 38.0625 27.9688C38.125 27.9688 38.1875 27.9688 38.25 27.9688C44.4375 28.4896 50.2396 28.75 55.6562 28.75C61.0521 28.75 66.8438 28.4896 73.0312 27.9688C73.0938 27.9688 73.1562 27.9688 73.2188 27.9688C73.2812 27.9479 73.3438 27.9375 73.4062 27.9375C73.6979 28.2292 74.2292 30.1667 75 33.75C75.7708 37.3333 76.1562 39.4792 76.1562 40.1875C76.1562 40.3333 76.0729 40.5417 75.9062 40.8125C75.7604 41.0625 75.5208 41.3438 75.1875 41.6562C74.875 41.9479 74.4062 42.1979 73.7812 42.4062C73.1771 42.6146 72.4792 42.7188 71.6875 42.7188C71.3333 42.7188 70.9375 42.0938 70.5 40.8438C70.0625 39.5938 69.625 38.1458 69.1875 36.5C68.7708 34.8333 68.4688 33.7917 68.2812 33.375C67.4688 33.375 66.125 33.3854 64.25 33.4062C62.3958 33.4062 60.9792 33.4062 60 33.4062C59.6667 33.4062 59.4583 33.5 59.375 33.6875C59.2917 33.875 59.25 34.1458 59.25 34.5V66.7188C59.25 67.0312 59.2604 67.2812 59.2812 67.4688C59.3229 67.6354 59.3958 67.8333 59.5 68.0625C59.625 68.2917 59.8333 68.4688 60.125 68.5938C60.4167 68.6979 60.7917 68.75 61.25 68.75C62.2083 68.75 63.0312 68.875 63.7188 69.125C64.4062 69.375 64.75 69.75 64.75 70.25C64.75 73.0208 64.4062 74.7188 63.7188 75.3438C60.5938 75.1146 57.9167 75 55.6875 75C53.5 75 50.8021 75.1146 47.5938 75.3438C46.9062 74.7188 46.5625 73.0208 46.5625 70.25C46.5625 69.75 46.9062 69.375 47.5938 69.125C48.2812 68.875 49.1042 68.75 50.0625 68.75C50.875 68.75 51.4062 68.5833 51.6562 68.25C51.9062 67.8958 52.0312 67.4062 52.0312 66.7812ZM77.25 65.9375C76.25 63.6458 75.75 61.0938 75.75 58.2812C75.75 55.4688 76.25 52.9271 77.25 50.6562C78.25 48.3854 79.5833 46.5521 81.25 45.1562C82.9167 43.7396 84.7812 42.6562 86.8438 41.9062C88.9062 41.1562 91.0625 40.7812 93.3125 40.7812C95.5417 40.7812 97.6875 41.1562 99.75 41.9062C101.812 42.6562 103.667 43.7396 105.312 45.1562C106.979 46.5521 108.312 48.3854 109.312 50.6562C110.312 52.9271 110.812 55.4688 110.812 58.2812C110.812 61.0938 110.312 63.6458 109.312 65.9375C108.312 68.2083 106.979 70.0521 105.312 71.4688C103.667 72.8854 101.812 73.9688 99.75 74.7188C97.6875 75.4688 95.5417 75.8438 93.3125 75.8438C91.0625 75.8438 88.9062 75.4688 86.8438 74.7188C84.7812 73.9688 82.9167 72.8854 81.25 71.4688C79.5833 70.0521 78.25 68.2083 77.25 65.9375ZM86.0938 49.3125C84.0729 51.4583 83.0625 54.4479 83.0625 58.2812C83.0625 62.1146 84.0729 65.1146 86.0938 67.2812C88.1146 69.4271 90.5 70.5 93.25 70.5C94.5625 70.5 95.8229 70.2396 97.0312 69.7188C98.2396 69.1979 99.3229 68.4479 100.281 67.4688C101.26 66.4688 102.042 65.1771 102.625 63.5938C103.208 62.0104 103.5 60.2396 103.5 58.2812C103.5 56.3229 103.208 54.5521 102.625 52.9688C102.042 51.3854 101.26 50.1042 100.281 49.125C99.3229 48.1458 98.2396 47.3958 97.0312 46.875C95.8229 46.3542 94.5625 46.0938 93.25 46.0938C90.5 46.0938 88.1146 47.1667 86.0938 49.3125ZM126.562 69.5938H138.688C140.458 69.5938 142.104 69.2604 143.625 68.5938C145.167 67.9271 146.49 67.0312 147.594 65.9062C148.698 64.7604 149.635 63.4271 150.406 61.9062C151.198 60.3854 151.781 58.7708 152.156 57.0625C152.552 55.3333 152.75 53.5729 152.75 51.7812C152.75 49.5104 152.417 47.3125 151.75 45.1875C151.104 43.0625 150.167 41.1354 148.938 39.4062C147.729 37.6771 146.146 36.2917 144.188 35.25C142.25 34.2083 140.104 33.6875 137.75 33.6875H126.562V69.5938ZM115.531 28.0312C118.281 28.3021 122.115 28.4375 127.031 28.4375C128.615 28.4375 130.604 28.375 133 28.25C135.417 28.1042 137 28.0312 137.75 28.0312C140.854 28.0312 143.698 28.4792 146.281 29.375C148.865 30.25 151.042 31.4479 152.812 32.9688C154.583 34.4896 156.083 36.2604 157.312 38.2812C158.562 40.3021 159.469 42.4375 160.031 44.6875C160.594 46.9375 160.875 49.2604 160.875 51.6562C160.875 54.0938 160.594 56.4479 160.031 58.7188C159.49 60.9688 158.625 63.1146 157.438 65.1562C156.271 67.1771 154.833 68.9375 153.125 70.4375C151.417 71.9375 149.323 73.1354 146.844 74.0312C144.365 74.9062 141.646 75.3438 138.688 75.3438C137.812 75.3438 136.167 75.2812 133.75 75.1562C131.354 75.0521 129.229 75 127.375 75C126.5 75 125.438 75.0208 124.188 75.0625C122.938 75.1042 121.448 75.1562 119.719 75.2188C117.99 75.2812 116.594 75.3229 115.531 75.3438C114.969 75.0104 114.552 74.3438 114.281 73.3438C114.01 72.3438 113.875 71.3125 113.875 70.25C113.875 69.75 114.219 69.375 114.906 69.125C115.594 68.875 116.417 68.75 117.375 68.75C118.188 68.75 118.719 68.5833 118.969 68.25C119.219 67.8958 119.344 67.4062 119.344 66.7812V36.5938C119.344 35.9688 119.219 35.4896 118.969 35.1562C118.719 34.8021 118.188 34.625 117.375 34.625C115.042 34.625 113.875 34.0833 113.875 33C113.875 31.9792 114.01 30.9792 114.281 30C114.552 29 114.969 28.3438 115.531 28.0312ZM165.25 65.9375C164.25 63.6458 163.75 61.0938 163.75 58.2812C163.75 55.4688 164.25 52.9271 165.25 50.6562C166.25 48.3854 167.583 46.5521 169.25 45.1562C170.917 43.7396 172.781 42.6562 174.844 41.9062C176.906 41.1562 179.062 40.7812 181.312 40.7812C183.542 40.7812 185.688 41.1562 187.75 41.9062C189.812 42.6562 191.667 43.7396 193.312 45.1562C194.979 46.5521 196.312 48.3854 197.312 50.6562C198.312 52.9271 198.812 55.4688 198.812 58.2812C198.812 61.0938 198.312 63.6458 197.312 65.9375C196.312 68.2083 194.979 70.0521 193.312 71.4688C191.667 72.8854 189.812 73.9688 187.75 74.7188C185.688 75.4688 183.542 75.8438 181.312 75.8438C179.062 75.8438 176.906 75.4688 174.844 74.7188C172.781 73.9688 170.917 72.8854 169.25 71.4688C167.583 70.0521 166.25 68.2083 165.25 65.9375ZM174.094 49.3125C172.073 51.4583 171.062 54.4479 171.062 58.2812C171.062 62.1146 172.073 65.1146 174.094 67.2812C176.115 69.4271 178.5 70.5 181.25 70.5C182.562 70.5 183.823 70.2396 185.031 69.7188C186.24 69.1979 187.323 68.4479 188.281 67.4688C189.26 66.4688 190.042 65.1771 190.625 63.5938C191.208 62.0104 191.5 60.2396 191.5 58.2812C191.5 56.3229 191.208 54.5521 190.625 52.9688C190.042 51.3854 189.26 50.1042 188.281 49.125C187.323 48.1458 186.24 47.3958 185.031 46.875C183.823 46.3542 182.562 46.0938 181.25 46.0938C178.5 46.0938 176.115 47.1667 174.094 49.3125Z" fill="white"/>
<path d="M453.812 177.031C454.812 177.302 457.292 177.438 461.25 177.438C464.729 177.438 467 177.302 468.062 177.031C468.625 177.344 469.042 177.938 469.312 178.812C469.583 179.667 469.719 180.573 469.719 181.531C469.719 182.031 469.438 182.406 468.875 182.656C468.312 182.906 467.635 183.031 466.844 183.031C466.385 183.031 466.01 183.094 465.719 183.219C465.427 183.323 465.219 183.49 465.094 183.719C464.99 183.948 464.917 184.156 464.875 184.344C464.854 184.51 464.844 184.75 464.844 185.062V217.312C464.844 218.042 464.99 218.406 465.281 218.406C467.156 218.406 469.698 218.417 472.906 218.438C476.135 218.438 478.438 218.438 479.812 218.438C480.083 217.958 480.583 216.719 481.312 214.719C482.042 212.719 482.771 210.969 483.5 209.469C484.229 207.969 484.865 207.219 485.406 207.219C486.198 207.219 486.896 207.323 487.5 207.531C488.125 207.74 488.594 208 488.906 208.312C489.24 208.604 489.479 208.885 489.625 209.156C489.792 209.406 489.875 209.604 489.875 209.75C489.875 210.604 488.99 213.177 487.219 217.469C485.469 221.74 484.292 224.031 483.688 224.344C478 224.115 472.781 224 468.031 224C463.594 224 458.854 224.115 453.812 224.344C453.25 224.01 452.833 223.344 452.562 222.344C452.292 221.344 452.156 220.312 452.156 219.25C452.156 218.75 452.5 218.375 453.188 218.125C453.875 217.875 454.698 217.75 455.656 217.75C456.469 217.75 457 217.583 457.25 217.25C457.5 216.896 457.625 216.406 457.625 215.781V185.594C457.625 184.969 457.5 184.49 457.25 184.156C457 183.802 456.469 183.625 455.656 183.625C453.323 183.625 452.156 183.083 452.156 182C452.156 180.979 452.292 179.979 452.562 179C452.833 178 453.25 177.344 453.812 177.031ZM499.625 185.094C499.125 185.094 498.615 185.052 498.094 184.969C497.573 184.865 497 184.688 496.375 184.438C495.771 184.188 495.271 183.792 494.875 183.25C494.5 182.708 494.312 182.062 494.312 181.312C494.312 178.75 496.042 177.469 499.5 177.469C500.479 177.469 501.302 177.594 501.969 177.844C502.656 178.094 503.156 178.427 503.469 178.844C503.802 179.26 504.031 179.667 504.156 180.062C504.281 180.458 504.344 180.885 504.344 181.344C504.344 182.281 504.052 183.052 503.469 183.656C502.885 184.26 502.26 184.656 501.594 184.844C500.948 185.01 500.292 185.094 499.625 185.094ZM504.781 193.375V216.156C504.781 216.469 504.792 216.719 504.812 216.906C504.854 217.073 504.927 217.271 505.031 217.5C505.156 217.729 505.365 217.906 505.656 218.031C505.948 218.135 506.323 218.188 506.781 218.188C507.573 218.188 508.25 218.312 508.812 218.562C509.375 218.812 509.656 219.188 509.656 219.688C509.656 222.125 509.312 223.646 508.625 224.25C506.75 224.083 504.458 224 501.75 224C498.938 224 496.312 224.083 493.875 224.25C493.188 223.625 492.844 222.104 492.844 219.688C492.844 219.188 493.125 218.812 493.688 218.562C494.25 218.312 494.927 218.188 495.719 218.188C496.531 218.188 497.062 218.021 497.312 217.688C497.562 217.333 497.688 216.844 497.688 216.219V199.438C497.688 198.333 497.365 197.552 496.719 197.094C496.094 196.635 494.875 196.365 493.062 196.281C492.792 196.219 492.615 196.083 492.531 195.875C492.469 195.667 492.438 195.219 492.438 194.531C492.438 193.469 492.552 192.531 492.781 191.719C493.01 190.906 493.24 190.438 493.469 190.312C495.073 190.542 496.625 190.656 498.125 190.656C499.125 190.656 500.177 190.604 501.281 190.5C502.385 190.375 502.969 190.312 503.031 190.312C503.76 190.312 504.229 190.5 504.438 190.875C504.667 191.229 504.781 192.062 504.781 193.375ZM540.25 215.719C540.25 217.823 539.604 219.573 538.312 220.969C537.042 222.344 535.354 223.333 533.25 223.938C531.146 224.542 528.656 224.844 525.781 224.844C521.365 224.844 517.906 224.208 515.406 222.938C512.927 221.667 511.688 219.719 511.688 217.094C511.688 214.115 513.51 212.625 517.156 212.625C517.74 212.625 518.125 212.74 518.312 212.969C518.5 213.198 518.594 213.635 518.594 214.281V218.531C519.365 218.948 520.5 219.271 522 219.5C523.521 219.729 525.052 219.844 526.594 219.844C528.427 219.844 529.938 219.469 531.125 218.719C532.333 217.948 532.938 216.896 532.938 215.562C532.938 214.625 532.635 213.792 532.031 213.062C531.427 212.312 530.635 211.708 529.656 211.25C528.677 210.792 527.552 210.333 526.281 209.875C525.031 209.396 523.75 208.958 522.438 208.562C521.146 208.167 519.865 207.667 518.594 207.062C517.344 206.458 516.229 205.802 515.25 205.094C514.271 204.385 513.479 203.458 512.875 202.312C512.271 201.167 511.969 199.875 511.969 198.438C511.969 196.583 512.656 194.979 514.031 193.625C515.406 192.271 517.083 191.292 519.062 190.688C521.062 190.083 523.198 189.781 525.469 189.781C534.802 189.781 539.469 192.49 539.469 197.906C539.469 198.24 539.406 198.594 539.281 198.969C539.177 199.344 538.958 199.781 538.625 200.281C538.312 200.781 537.771 201.198 537 201.531C536.25 201.844 535.323 202 534.219 202C534.01 202 533.833 201.979 533.688 201.938C533.562 201.896 533.458 201.854 533.375 201.812C533.312 201.75 533.25 201.656 533.188 201.531C533.146 201.385 533.115 201.281 533.094 201.219C533.094 201.156 533.073 201.021 533.031 200.812C533.01 200.583 533 200.427 533 200.344L532.562 195.969C532.271 195.677 531.365 195.354 529.844 195C528.344 194.646 527.052 194.469 525.969 194.469C523.844 194.469 522.26 194.865 521.219 195.656C520.198 196.448 519.688 197.448 519.688 198.656C519.688 199.531 520.062 200.302 520.812 200.969C521.583 201.635 522.573 202.208 523.781 202.688C524.99 203.146 526.323 203.604 527.781 204.062C529.24 204.521 530.698 205.073 532.156 205.719C533.615 206.344 534.948 207.062 536.156 207.875C537.365 208.688 538.344 209.771 539.094 211.125C539.865 212.458 540.25 213.99 540.25 215.719ZM564.375 217.75C565 218.938 565.312 220.052 565.312 221.094C565.312 221.677 565.052 222.188 564.531 222.625C564.031 223.042 563.375 223.365 562.562 223.594C561.75 223.823 560.938 223.99 560.125 224.094C559.312 224.198 558.521 224.25 557.75 224.25C556.583 224.25 555.5 224.083 554.5 223.75C553.5 223.417 552.542 222.875 551.625 222.125C550.729 221.354 550.021 220.25 549.5 218.812C548.979 217.354 548.719 215.625 548.719 213.625V195.5H547.375C544.917 195.5 543.573 195.51 543.344 195.531C542.656 195.281 542.312 194.479 542.312 193.125C542.312 191.479 542.833 190.656 543.875 190.656H548.719C548.802 189.99 548.875 189.125 548.938 188.062C549.021 186.979 549.094 186.125 549.156 185.5C549.219 184.875 549.312 184.135 549.438 183.281C549.583 182.427 549.771 181.76 550 181.281C550.25 180.781 550.562 180.292 550.938 179.812C551.312 179.333 551.792 178.99 552.375 178.781C552.979 178.552 553.688 178.438 554.5 178.438C555.062 178.438 555.5 178.531 555.812 178.719V190.656H559.969C562.448 190.656 563.75 190.604 563.875 190.5C564.917 190.5 565.438 191.396 565.438 193.188C565.438 194.542 565.094 195.344 564.406 195.594C563.719 195.531 562.375 195.5 560.375 195.5H555.812V213.438C555.812 216.896 556.938 218.625 559.188 218.625C560.646 218.625 562.375 218.333 564.375 217.75Z" fill="white"/>
<circle cx="325" cy="125" r="125" fill="#C5D8B4"/>
<circle cx="325" cy="125" r="105" fill="#8FA080"/>
<circle cx="325" cy="125" r="85" fill="#708066"/>
<path d="M297.222 125H308.333V135H297.222V125ZM375 95V165C375 170.55 370.056 175 363.889 175H286.111C279.944 175 275 170.5 275 165V95C275 89.5 280 85 286.111 85H291.667V75H302.778V85H347.222V75H358.333V85H363.889C370.056 85 375 89.5 375 95ZM286.111 105H363.889V95H286.111V105ZM363.889 165V115H286.111V165H363.889ZM341.667 135V125H352.778V135H341.667ZM319.444 135V125H330.556V135H319.444ZM297.222 145H308.333V155H297.222V145ZM341.667 155V145H352.778V155H341.667ZM319.444 155V145H330.556V155H319.444Z" fill="white"/>
</svg>
